<?xml version="1.0" encoding="iso-8859-1"?>
<!-- Generator: Adobe Illustrator 19.0.0, SVG Export Plug-In . SVG Version: 6.00 Build 0)  -->
<svg version="1.1" id="Capa_1" xmlns="http://www.w3.org/2000/svg" xmlns:xlink="http://www.w3.org/1999/xlink" x="0px" y="0px"
	 viewBox="0 0 496.032 496.032" style="enable-background:new 0 0 496.032 496.032;" xml:space="preserve">
<linearGradient id="SVGID_1_" gradientUnits="userSpaceOnUse" x1="-52.7752" y1="586.2225" x2="-2.1772" y2="636.8196" gradientTransform="matrix(8 0 0 -8 398.7761 5085.165)">
	<stop  offset="0" style="stop-color:#003F8A"/>
	<stop  offset="0.518" style="stop-color:#00D7DF"/>
	<stop  offset="1" style="stop-color:#006DF0"/>
</linearGradient>
<path style="fill:url(#SVGID_1_);" d="M320.032,192.018h8c13.255,0,24-10.745,24-24v-52.8
	c0.602-57.465-44.631-104.977-102.056-107.2c-57.438-0.537-104.435,45.59-104.972,103.028s45.59,104.435,103.028,104.972
	c4.418,0,8-3.582,8-8s-3.582-8-8-8c-48.601-0.455-87.631-40.223-87.176-88.824c0.455-48.601,40.223-87.631,88.824-87.176
	c48.721,2.022,86.991,42.441,86.352,91.2v52.8c0,4.418-3.582,8-8,8h-8c-4.418,0-8-3.582-8-8v-88c0-4.418-3.582-8-8-8
	c-3.684,0.031-6.856,2.608-7.64,6.208c-23.077-26.773-63.489-29.769-90.262-6.692s-29.769,63.489-6.692,90.262
	s63.489,29.769,90.262,6.692c2.254-1.943,4.37-4.041,6.332-6.278v5.808C296.032,181.273,306.777,192.018,320.032,192.018z
	 M248.032,168.018c-26.51,0-48-21.49-48-48s21.49-48,48-48s48,21.49,48,48C296.006,146.517,274.531,167.992,248.032,168.018z"/>
<linearGradient id="SVGID_2_" gradientUnits="userSpaceOnUse" x1="-39.3099" y1="572.7552" x2="11.2871" y2="623.3533" gradientTransform="matrix(8 0 0 -8 398.7761 5085.165)">
	<stop  offset="0" style="stop-color:#003F8A"/>
	<stop  offset="0.518" style="stop-color:#00D7DF"/>
	<stop  offset="1" style="stop-color:#006DF0"/>
</linearGradient>
<path style="fill:url(#SVGID_2_);" d="M495.816,206.506c-0.071-0.344-0.17-0.681-0.296-1.008c-0.122-0.373-0.272-0.737-0.448-1.088
	c-0.052-0.174-0.113-0.345-0.184-0.512c-0.056-0.104-0.168-0.152-0.232-0.256c-0.442-0.584-0.943-1.12-1.496-1.6
	c-0.236-0.22-0.487-0.424-0.752-0.608c-0.104-0.064-0.152-0.176-0.256-0.232l-112.304-67.424c-3.789-2.275-8.705-1.049-10.98,2.74
	c-2.275,3.789-1.049,8.705,2.74,10.98l100.872,60.52L348.032,282.69l-95.88-57.528c-2.535-1.523-5.705-1.523-8.24,0l-95.88,57.528
	L23.584,208.018l100.872-60.52c3.789-2.275,5.015-7.191,2.74-10.98c-2.275-3.789-7.191-5.015-10.98-2.74l0,0L3.912,201.162
	c-0.096,0.056-0.152,0.16-0.248,0.232c-0.281,0.186-0.549,0.392-0.8,0.616c-0.315,0.271-0.609,0.565-0.88,0.88
	c-0.218,0.238-0.421,0.489-0.608,0.752c-0.064,0.104-0.176,0.152-0.232,0.256c-0.071,0.167-0.132,0.338-0.184,0.512
	c-0.176,0.351-0.326,0.715-0.448,1.088c-0.126,0.327-0.225,0.664-0.296,1.008c-0.057,0.323-0.095,0.649-0.112,0.976
	c0,0.184-0.104,0.344-0.104,0.536v256c0,13.255,10.745,24,24,24h448.032c13.255,0,24-10.745,24-24v-256
	c0-0.192-0.096-0.352-0.104-0.536C495.911,207.155,495.874,206.829,495.816,206.506L495.816,206.506z M480.032,222.146V361.89
	l-116.448-69.872L480.032,222.146z M16.032,222.146l116.448,69.872L16.032,361.89V222.146z M472.032,472.018h-448
	c-4.418,0-8-3.582-8-8v-83.472l232-139.2l232,139.2v83.472C480.032,468.437,476.45,472.018,472.032,472.018z"/>
<linearGradient id="SVGID_3_" gradientUnits="userSpaceOnUse" x1="-46.0214" y1="579.4648" x2="4.5756" y2="630.0657" gradientTransform="matrix(8 0 0 -8 398.7761 5085.165)">
	<stop  offset="0" style="stop-color:#003F8A"/>
	<stop  offset="0.518" style="stop-color:#00D7DF"/>
	<stop  offset="1" style="stop-color:#006DF0"/>
</linearGradient>
<path style="fill:url(#SVGID_3_);" d="M56.032,440.018h-8v-24c0-4.418-3.582-8-8-8s-8,3.582-8,8v32c0,4.418,3.582,8,8,8h16
	c4.418,0,8-3.582,8-8S60.45,440.018,56.032,440.018z"/>
<linearGradient id="SVGID_4_" gradientUnits="userSpaceOnUse" x1="-42.0213" y1="575.4647" x2="8.5757" y2="626.0657" gradientTransform="matrix(8 0 0 -8 398.7761 5085.165)">
	<stop  offset="0" style="stop-color:#003F8A"/>
	<stop  offset="0.518" style="stop-color:#00D7DF"/>
	<stop  offset="1" style="stop-color:#006DF0"/>
</linearGradient>
<path style="fill:url(#SVGID_4_);" d="M104.032,440.018h-16c-4.418,0-8,3.582-8,8s3.582,8,8,8h16c4.418,0,8-3.582,8-8
	S108.45,440.018,104.032,440.018z"/>
<g>
</g>
<g>
</g>
<g>
</g>
<g>
</g>
<g>
</g>
<g>
</g>
<g>
</g>
<g>
</g>
<g>
</g>
<g>
</g>
<g>
</g>
<g>
</g>
<g>
</g>
<g>
</g>
<g>
</g>
</svg>
