<?xml version="1.0" encoding="iso-8859-1"?>
<!-- Generator: Adobe Illustrator 19.0.0, SVG Export Plug-In . SVG Version: 6.00 Build 0)  -->
<svg version="1.1" id="Capa_1" xmlns="http://www.w3.org/2000/svg" xmlns:xlink="http://www.w3.org/1999/xlink" x="0px" y="0px"
	 viewBox="0 0 480 480" style="enable-background:new 0 0 480 480;" xml:space="preserve">
<linearGradient id="SVGID_1_" gradientUnits="userSpaceOnUse" x1="-58.815" y1="587.625" x2="5.325" y2="587.625" gradientTransform="matrix(8 0 0 -8 455 4941)">
	<stop  offset="0" style="stop-color:#00A2CC"/>
	<stop  offset="1" style="stop-color:#2B32B2"/>
</linearGradient>
<path style="fill:url(#SVGID_1_);" d="M440,80H40C17.92,80.026,0.026,97.92,0,120v240c0.026,22.08,17.92,39.974,40,40h400
	c22.08-0.026,39.974-17.92,40-40V120C479.974,97.92,462.08,80.026,440,80z M464,360c0,13.255-10.745,24-24,24H40
	c-13.255,0-24-10.745-24-24V120c0-13.255,10.745-24,24-24h400c13.255,0,24,10.745,24,24V360z"/>
<g>
	
		<linearGradient id="SVGID_2_" gradientUnits="userSpaceOnUse" x1="-58.815" y1="595.623" x2="5.325" y2="595.623" gradientTransform="matrix(8 0 0 -8 455 4941)">
		<stop  offset="0" style="stop-color:#00A2CC"/>
		<stop  offset="1" style="stop-color:#2B32B2"/>
	</linearGradient>
	<path style="fill:url(#SVGID_2_);" d="M446.856,115.88c-2.276-3.786-7.189-5.011-10.976-2.736L260.576,218.32
		c-12.658,7.624-28.494,7.624-41.152,0L44.12,113.144c-3.828-2.207-8.72-0.893-10.927,2.934c-2.151,3.73-0.964,8.494,2.687,10.778
		L211.2,232.04c17.722,10.654,39.878,10.654,57.6,0l175.32-105.184C447.906,124.58,449.131,119.667,446.856,115.88L446.856,115.88z"
		/>
	
		<linearGradient id="SVGID_3_" gradientUnits="userSpaceOnUse" x1="-58.815" y1="585.625" x2="5.325" y2="585.625" gradientTransform="matrix(8 0 0 -8 455 4941)">
		<stop  offset="0" style="stop-color:#00A2CC"/>
		<stop  offset="1" style="stop-color:#2B32B2"/>
	</linearGradient>
	<path style="fill:url(#SVGID_3_);" d="M40,144c-4.418,0-8,3.582-8,8v208c0,4.418,3.582,8,8,8s8-3.582,8-8V152
		C48,147.582,44.418,144,40,144z"/>
	
		<linearGradient id="SVGID_4_" gradientUnits="userSpaceOnUse" x1="-58.815" y1="585.625" x2="5.325" y2="585.625" gradientTransform="matrix(8 0 0 -8 455 4941)">
		<stop  offset="0" style="stop-color:#00A2CC"/>
		<stop  offset="1" style="stop-color:#2B32B2"/>
	</linearGradient>
	<path style="fill:url(#SVGID_4_);" d="M440,144c-4.418,0-8,3.582-8,8v208c0,4.418,3.582,8,8,8s8-3.582,8-8V152
		C448,147.582,444.418,144,440,144z"/>
</g>
<g>
</g>
<g>
</g>
<g>
</g>
<g>
</g>
<g>
</g>
<g>
</g>
<g>
</g>
<g>
</g>
<g>
</g>
<g>
</g>
<g>
</g>
<g>
</g>
<g>
</g>
<g>
</g>
<g>
</g>
</svg>
